<svg width="13" height="16" viewBox="0 0 13 16" xmlns="http://www.w3.org/2000/svg">
<path d="M0.417893 7.47393L5.17923 2.7126C5.46973 2.4221 5.94087 2.4221 6.23137 2.7126C6.52193 3.00316 6.52193 3.47417 6.23137 3.76473L2.74005 7.25604H12.256C12.6669 7.25604 13 7.58916 13 8C13 8.41079 12.6669 8.74396 12.256 8.74396H2.74005L6.23125 12.2353C6.52181 12.5258 6.52181 12.9968 6.23125 13.2874C6.08603 13.4326 5.89557 13.5053 5.70518 13.5053C5.51478 13.5053 5.32439 13.4326 5.17911 13.2874L0.417893 8.52607C0.127333 8.23551 0.127333 7.76449 0.417893 7.47393Z" />
</svg>