<svg width="13" height="16" viewBox="0 0 13 16" xmlns="http://www.w3.org/2000/svg">
<path d="M12.5821 7.47396L7.82077 2.71263C7.53027 2.42213 7.05913 2.42213 6.76863 2.71263C6.47807 3.00319 6.47807 3.4742 6.76863 3.76476L10.2599 7.25607H0.743959C0.333115 7.25607 0 7.58919 0 8.00003C0 8.41082 0.333115 8.74399 0.743959 8.74399H10.2599L6.76875 12.2353C6.47819 12.5259 6.47819 12.9969 6.76875 13.2874C6.91397 13.4326 7.10443 13.5053 7.29482 13.5053C7.48522 13.5053 7.67561 13.4326 7.82089 13.2874L12.5821 8.5261C12.8727 8.23554 12.8727 7.76453 12.5821 7.47396Z" />
</svg>
