<svg width="11" height="11" viewBox="0 0 11 11" xmlns="http://www.w3.org/2000/svg">
<path d="M6.47283 5.50086L10.7984 1.17525C11.0672 0.906732 11.0672 0.471052 10.7984 0.202536C10.5297 -0.0662099 10.0945 -0.0662099 9.82573 0.202536L5.50011 4.52815L1.17427 0.202536C0.905526 -0.0662099 0.470305 -0.0662099 0.201559 0.202536C-0.0671864 0.471052 -0.0671864 0.906732 0.201559 1.17525L4.5274 5.50086L0.201559 9.82648C-0.0671864 10.095 -0.0671864 10.5307 0.201559 10.7992C0.335932 10.9333 0.512039 11.0005 0.687916 11.0005C0.863793 11.0005 1.0399 10.9333 1.17427 10.799L5.50011 6.47335L9.82573 10.799C9.9601 10.9333 10.1362 11.0005 10.3121 11.0005C10.488 11.0005 10.6641 10.9333 10.7984 10.799C11.0672 10.5304 11.0672 10.0948 10.7984 9.82625L6.47283 5.50086Z"/>
</svg>
