<svg width="8" height="12" viewBox="0 0 8 12" fill="none" xmlns="http://www.w3.org/2000/svg">
<path d="M5.80371 7.30178H3.17871C3.19694 8.19045 3.41113 8.87405 3.82129 9.35256C4.23145 9.83108 4.8125 10.0703 5.56445 10.0703C6.0931 10.0703 6.58984 9.99286 7.05469 9.83791L7.19141 10.9317C6.64453 11.0684 6.09766 11.1367 5.55078 11.1367C4.42057 11.1367 3.52962 10.8041 2.87793 10.1387C2.23079 9.46877 1.89355 8.52313 1.86621 7.30178H0.649414V6.45412H1.86621V5.5176H0.649414V4.66311H1.86621C1.91178 3.4691 2.25814 2.54625 2.90527 1.89455C3.55697 1.2383 4.43652 0.910179 5.54395 0.910179C6.02702 0.910179 6.57617 0.980817 7.19141 1.12209L7.05469 2.22952C6.55794 2.07001 6.05892 1.99026 5.55762 1.99026C4.81022 1.99026 4.23372 2.22268 3.82812 2.68752C3.42708 3.14781 3.21289 3.80634 3.18555 4.66311H5.80371V5.5176H3.17871V6.45412H5.80371V7.30178Z" fill="#999999"/>
</svg>
