<svg width="9" height="11" viewBox="0 0 9 11" fill="none" xmlns="http://www.w3.org/2000/svg">
<path d="M1.455 11V8.96002H0.15V7.98502H1.455V6.65002H0.15V5.51002H1.455V0.290022H4.275C5.585 0.290022 6.555 0.555022 7.185 1.08502C7.825 1.61502 8.145 2.38502 8.145 3.39502C8.145 4.41502 7.8 5.21502 7.11 5.79502C6.42 6.36502 5.405 6.65002 4.065 6.65002H2.805V7.98502H5.28V8.96002H2.805V11H1.455ZM2.805 5.51002H3.87C4.78 5.51002 5.485 5.36002 5.985 5.06002C6.495 4.76002 6.75 4.22002 6.75 3.44002C6.75 2.76002 6.54 2.25502 6.12 1.92502C5.7 1.59502 5.045 1.43002 4.155 1.43002H2.805V5.51002Z" fill="#999999"/>
</svg>
