<svg width="24" height="20" viewBox="0 0 24 20" fill="none" xmlns="http://www.w3.org/2000/svg">
<path d="M21.7338 0.617773L0.48872 8.6456C0.339328 8.70352 0.212138 8.80492 0.124713 8.93597C0.0372884 9.06691 -0.00603874 9.22095 0.000677918 9.3768C0.00750291 9.53264 0.0639441 9.68257 0.162419 9.80602C0.260786 9.92947 0.396304 10.0202 0.550246 10.0658L5.9525 11.6106L7.96566 17.8063C8.01397 17.9546 8.10119 18.088 8.21851 18.194C8.33595 18.2998 8.4797 18.3744 8.6357 18.4105C8.7917 18.4464 8.95463 18.4426 9.10868 18.3995C9.26273 18.3563 9.4027 18.2752 9.51472 18.164L12.3109 15.3996L17.7862 19.2969C17.9378 19.4134 18.1188 19.4894 18.3105 19.5177C18.5023 19.546 18.6983 19.5255 18.8793 19.4583C19.0602 19.3911 19.2194 19.2794 19.3429 19.1342C19.4664 18.989 19.5477 18.8153 19.5813 18.6303L23.1996 1.79941C23.231 1.61445 23.2126 1.42452 23.1454 1.24842C23.0793 1.07232 22.9667 0.916058 22.8193 0.794824C22.6709 0.673484 22.4933 0.591501 22.3037 0.556682C22.113 0.521863 21.9169 0.535368 21.7338 0.596038V0.617773ZM19.0721 4.34712L9.20163 12.8086C9.10424 12.8924 9.04249 13.0083 9.02819 13.1338L8.64794 16.3861C8.64794 16.412 8.63732 16.4368 8.61847 16.4551C8.59962 16.4734 8.57395 16.4837 8.5473 16.4837C8.52054 16.4837 8.49497 16.4734 8.47612 16.4551C8.45727 16.4368 8.44666 16.412 8.44666 16.3861L6.88081 11.5076C6.85059 11.3983 6.85643 11.2825 6.89749 11.1765C6.93866 11.0706 7.01298 10.9797 7.11005 10.9168L18.7644 3.96769C18.8197 3.92813 18.8879 3.91135 18.9562 3.92095C19.0233 3.93066 19.084 3.96601 19.1252 4.01918C19.1663 4.07236 19.1837 4.13905 19.1728 4.20467C19.1631 4.2702 19.1273 4.32929 19.0721 4.36875V4.34712Z" fill="white"/>
</svg>
