<svg width="8" height="15" viewBox="0 0 8 15" fill="none" xmlns="http://www.w3.org/2000/svg">
<path d="M6.26953 10.2534C6.26953 9.8042 6.11084 9.42578 5.79346 9.11816C5.48096 8.81055 4.95117 8.53223 4.2041 8.2832C3.16406 7.96582 2.40479 7.55322 1.92627 7.04541C1.45264 6.53271 1.21582 5.8833 1.21582 5.09717C1.21582 4.29639 1.44775 3.63965 1.91162 3.12695C2.38037 2.61426 3.02246 2.30908 3.83789 2.21143V0.607422H4.9292V2.21875C5.74951 2.33105 6.38672 2.67529 6.84082 3.25146C7.2998 3.82764 7.5293 4.61621 7.5293 5.61719H6.18164C6.18164 4.92871 6.01807 4.38184 5.69092 3.97656C5.36377 3.57129 4.92188 3.36865 4.36523 3.36865C3.78418 3.36865 3.33984 3.52002 3.03223 3.82275C2.72461 4.12061 2.5708 4.53809 2.5708 5.0752C2.5708 5.57324 2.73193 5.97119 3.0542 6.26904C3.38135 6.56201 3.91602 6.83057 4.6582 7.07471C5.40527 7.31396 5.98633 7.58008 6.40137 7.87305C6.82129 8.16113 7.12891 8.49805 7.32422 8.88379C7.52441 9.26953 7.62451 9.72119 7.62451 10.2388C7.62451 11.064 7.37549 11.728 6.87744 12.231C6.38428 12.7339 5.69092 13.0317 4.79736 13.1245V14.5234H3.71338V13.1245C2.80518 13.0415 2.09229 12.7192 1.57471 12.1577C1.06201 11.5913 0.805664 10.8247 0.805664 9.85791H2.16064C2.16064 10.5366 2.33887 11.0591 2.69531 11.4253C3.05176 11.7915 3.55713 11.9746 4.21143 11.9746C4.85107 11.9746 5.354 11.8208 5.72021 11.5132C6.08643 11.2056 6.26953 10.7856 6.26953 10.2534Z" fill="#999999"/>
</svg>
