<?xml version="1.0" encoding="utf-8"?><svg xmlns="http://www.w3.org/2000/svg" xmlns:xlink="http://www.w3.org/1999/xlink"><symbol viewBox="0 0 20 20" fill="none" id="arrow-down"><path d="M5.833 5.833l8.334 8.334m0-8.334v8.334H5.833" stroke="#EB5757" stroke-width="1.5" stroke-linecap="round" stroke-linejoin="round"/></symbol><symbol viewBox="0 0 13 16" id="arrow-left"><path d="M.418 7.474l4.761-4.761a.744.744 0 011.052 1.052l-3.49 3.491h9.515a.744.744 0 010 1.488H2.74l3.491 3.491a.744.744 0 11-1.052 1.052L.418 8.527a.744.744 0 010-1.053z"/></symbol><symbol viewBox="0 0 13 16" id="arrow-right"><path d="M12.582 7.474L7.821 2.713a.744.744 0 00-1.052 1.052l3.49 3.491H.745a.744.744 0 000 1.488h9.516L6.77 12.235a.744.744 0 101.052 1.052l4.761-4.76a.744.744 0 000-1.053z"/></symbol><symbol viewBox="0 0 20 20" fill="none" id="arrow-up"><path d="M5.833 14.167l8.334-8.334m-8.334 0h8.334v8.334" stroke="#6FCF97" stroke-width="1.5" stroke-linecap="round" stroke-linejoin="round"/></symbol><symbol viewBox="0 0 11 11" id="close"><path d="M6.473 5.5l4.325-4.325a.687.687 0 10-.972-.972L5.5 4.528 1.174.203a.688.688 0 10-.972.972l4.325 4.326L.202 9.826a.688.688 0 10.972.973L5.5 6.473 9.826 10.8a.686.686 0 00.972 0 .688.688 0 000-.973L6.473 5.501z"/></symbol><symbol viewBox="0 0 8 12" fill="none" id="euro"><path d="M5.804 7.302H3.179c.018.888.232 1.572.642 2.05.41.48.991.718 1.743.718a4.67 4.67 0 001.49-.232l.137 1.094a6.743 6.743 0 01-1.64.205c-1.13 0-2.021-.333-2.673-.998-.647-.67-.984-1.616-1.012-2.837H.65v-.848h1.217v-.936H.65v-.855h1.217c.046-1.194.392-2.117 1.04-2.768.651-.657 1.53-.985 2.638-.985.483 0 1.032.07 1.647.212L7.055 2.23a4.871 4.871 0 00-1.497-.24c-.748 0-1.324.233-1.73.698-.4.46-.615 1.118-.642 1.975h2.618v.855H3.179v.936h2.625v.848z" fill="#999"/></symbol><symbol viewBox="0 0 21 18" fill="none" id="menu"><path fill-rule="evenodd" clip-rule="evenodd" d="M0 0h21v2H0V0zm0 8h21v2H0V8zm0 8h21v2H0v-2z" fill="#2B2B2B"/></symbol><symbol viewBox="0 0 36 36" fill="none" id="play-circle"><path d="M18 33c8.284 0 15-6.716 15-15 0-8.284-6.716-15-15-15C9.716 3 3 9.716 3 18c0 8.284 6.716 15 15 15z" stroke="#fff" stroke-width="2" stroke-linecap="round" stroke-linejoin="round"/><path d="M15 12l9 6-9 6V12z" stroke="#fff" stroke-width="2" stroke-linecap="round" stroke-linejoin="round"/></symbol><symbol viewBox="0 0 9 11" fill="none" id="rubl"><path d="M1.455 11V8.96H.15v-.975h1.305V6.65H.15V5.51h1.305V.29h2.82c1.31 0 2.28.265 2.91.795.64.53.96 1.3.96 2.31 0 1.02-.345 1.82-1.035 2.4-.69.57-1.705.855-3.045.855h-1.26v1.335H5.28v.975H2.805V11h-1.35zm1.35-5.49H3.87c.91 0 1.615-.15 2.115-.45.51-.3.765-.84.765-1.62 0-.68-.21-1.185-.63-1.515-.42-.33-1.075-.495-1.965-.495h-1.35v4.08z" fill="#999"/></symbol><symbol viewBox="0 0 20 20" fill="none" id="search"><path d="M9 17A8 8 0 109 1a8 8 0 000 16zm10 2l-4.35-4.35" stroke="#2B2B2B" stroke-width="2" stroke-linecap="round" stroke-linejoin="round"/></symbol><symbol viewBox="0 0 24 20" fill="none" id="telegram"><path d="M21.734.618L.489 8.646a.772.772 0 00-.364.29.736.736 0 00.037.87.778.778 0 00.388.26l5.402 1.545 2.014 6.195a.898.898 0 00.253.388.94.94 0 00.89.206.934.934 0 00.406-.236L12.31 15.4l5.475 3.897a1.152 1.152 0 001.093.161c.181-.067.34-.179.464-.324a1.07 1.07 0 00.238-.504L23.2 1.8a1.08 1.08 0 00-.38-1.005 1.14 1.14 0 00-1.086-.199v.022zm-2.662 3.73l-9.87 8.46a.505.505 0 00-.174.326l-.38 3.252c0 .026-.01.05-.03.07a.102.102 0 01-.142 0 .096.096 0 01-.03-.07l-1.565-4.878a.527.527 0 01.016-.331.546.546 0 01.213-.26l11.654-6.95a.265.265 0 01.361.052.246.246 0 01-.053.35v-.022z" fill="#fff"/></symbol><symbol viewBox="0 0 8 15" fill="none" id="usd"><path d="M6.27 10.253c0-.449-.16-.827-.477-1.135-.312-.307-.842-.586-1.589-.835-1.04-.317-1.8-.73-2.278-1.238-.473-.512-.71-1.162-.71-1.948 0-.8.232-1.457.696-1.97.468-.513 1.11-.818 1.926-.916V.607h1.091V2.22c.82.112 1.458.456 1.912 1.032.459.577.688 1.365.688 2.366H6.182c0-.688-.164-1.235-.491-1.64-.327-.406-.77-.608-1.326-.608-.58 0-1.025.151-1.333.454-.307.298-.461.715-.461 1.252 0 .498.16.896.483 1.194.327.293.862.562 1.604.806.747.239 1.328.505 1.743.798.42.288.728.625.923 1.01.2.387.3.838.3 1.356 0 .825-.249 1.489-.747 1.992-.493.503-1.186.8-2.08.893v1.4H3.713v-1.4c-.908-.083-1.62-.405-2.138-.966-.513-.567-.77-1.333-.77-2.3h1.356c0 .679.178 1.201.534 1.567.357.366.862.55 1.516.55.64 0 1.143-.154 1.51-.462.365-.307.549-.727.549-1.26z" fill="#999"/></symbol></svg>