<svg viewBox="0 0 106 25" fill="none" xmlns="http://www.w3.org/2000/svg"><path fill-rule="evenodd" clip-rule="evenodd" d="M97.6 7.981v7.568c0 3.7 1.84 4.797 4.639 4.797a6.677 6.677 0 003.568-.922v-3.637a4.642 4.642 0 01-2.229.564c-1.006 0-1.458-.5-1.458-1.548V7.98h3.75V4.106h-3.75V0H97.6v4.106h-1.911V7.98H97.6zM48.535 4.106H44v20.742h4.527v-6.853a6.118 6.118 0 004.97 2.382c3.76 0 7.272-2.85 7.272-8.25s-3.544-8.323-7.263-8.323A5.842 5.842 0 0048.535 6.4V4.106zM65.13 6.238c-1.609 1.544-2.63 3.762-2.655 5.88a8.659 8.659 0 002.655 5.88 8.636 8.636 0 0011.958 0 8.665 8.665 0 002.656-5.88 8.665 8.665 0 00-2.656-5.88 8.636 8.636 0 00-11.958 0zm15.82 11.725l1.934-2.978a8.999 8.999 0 005.035 1.906c1.308 0 1.903-.476 1.903-1.255 0-.857-1.201-1.214-2.642-1.643a63.61 63.61 0 01-.656-.199c-2.236-.66-4.758-1.7-4.758-4.86s2.617-5.067 5.828-5.067c2.121.032 4.188.674 5.954 1.85l-1.728 3.13a9.395 9.395 0 00-4.313-1.493c-1.102 0-1.665.476-1.665 1.159 0 .814 1.244 1.235 2.764 1.75l.479.164c2.228.738 4.82 1.819 4.82 4.765 0 3.55-2.648 5.154-6.097 5.154a11.174 11.174 0 01-6.858-2.383zm-24.716-5.916c0-2.653-1.784-4.416-3.901-4.416s-3.869 1.763-3.869 4.471 1.76 4.408 3.869 4.408 3.901-1.708 3.901-4.447v-.016zm19.046.071a4.264 4.264 0 00-.278-1.665 4.24 4.24 0 00-3.925-2.742c-2.592 0-4.138 1.993-4.138 4.407a4.252 4.252 0 002.551 4.065 4.243 4.243 0 001.651.35c2.593 0 4.139-2 4.139-4.415z" fill="#2B2B2B"/><path fill-rule="evenodd" clip-rule="evenodd" d="M0 1h8.523c2.372 0 4.212.656 5.44 1.857a5.802 5.802 0 011.238 1.967 5.75 5.75 0 01.361 2.286 5.631 5.631 0 01-1.02 3.504 5.787 5.787 0 01-2.972 2.18l4.56 6.555h-4.766l-4.048-5.865H4.105v5.872H0V1zm8.26 8.91c2.003 0 3.147-1.048 3.147-2.647 0-1.732-1.229-2.625-3.225-2.625H4.105v5.271H8.26zm9.381 1.628c0-4.474 3.242-8.16 7.881-8.16 5.328 0 7.77 4.068 7.77 8.51 0 .352 0 .78-.056 1.17h-11.1a3.612 3.612 0 001.338 2.282c.721.569 1.633.85 2.555.789a5.27 5.27 0 002.107-.401 5.182 5.182 0 001.762-1.205l2.593 2.269a7.952 7.952 0 01-2.905 2.225 8.095 8.095 0 01-3.612.705 8.123 8.123 0 01-3.244-.526 8.003 8.003 0 01-2.753-1.765 7.836 7.836 0 01-1.798-2.705 7.727 7.727 0 01-.538-3.188zm11.25-1.255c-.269-1.987-1.458-3.336-3.369-3.336-1.911 0-3.092 1.317-3.449 3.336h6.818zm6.945-6.609h4.821V8.35h-4.821V3.674zm0 10.998h4.821v4.676h-4.821v-4.676z" fill="#7E7E7E"/></svg>